<svg height="512" viewBox="0 0 46 60" width="512" xmlns="http://www.w3.org/2000/svg"><g id="Page-1" fill="none" fill-rule="evenodd"><g id="010---Jug" fill-rule="nonzero" transform="translate(-1)"><g id="Icons" transform="translate(1 1)"><path id="Shape" d="m45 22.5c.0030704-7.8221729-6.2019764-14.23523481-14.02-14.49-.25-.02.89-.01-20.14-.01-.3994228.00151881-.7596313.24057864-.91618516.60804538-.15655387.36746673-.07942148.79284929.19618516 1.08195462 5 5 5.34 14.06-.2 18.72-2.52570706 2.0331229-4.73635943 4.4291196-6.56 7.11-1.59865992 2.7188695-2.41535048 5.8264463-2.36 8.98-.00864468 4.6409415 1.73820474 9.1134476 4.89 12.52.56992284.6233992 1.37534768.9789471 2.22.98h22.78c.8446523-.0010529 1.6500772-.3566008 2.22-.98 4.4200519-4.8304096 5.9701939-11.6312774 4.08-17.9-.333538-1.0916772-.7687792-2.149648-1.3-3.16 5.5021614-2.2031573 9.1096007-7.533139 9.11-13.46zm-12.23 9.22c-.499506-.5193959-1.0340974-1.0038694-1.6-1.45-2.52-2.01-5.45-3.77-6.79-6.84-1.0958554-2.4867361-.7364329-5.3745173.9355599-7.5167581s4.3860029-3.1922951 7.0644401-2.7332419c.03.01.06.01.09.02 4.3352927.9171753 7.460683 4.7097455 7.5324541 9.1404138s-2.9291423 8.3224767-7.2324541 9.3795862z" fill="#ff9801"/><path id="Shape" d="m45 22.5c.0030704-7.8221729-6.2019764-14.23523481-14.02-14.49-.152-.01.2-.01-4.208-.01 1.234 0 1.106 0 1.208.012 6.4980672.21962636 12.0555308 4.7378672 13.596864 11.0543065s-1.3103293 12.8866693-6.976864 16.0746935c-.9020103.48912-1.2965666 1.5749013-.919 2.529.1893333.474.3596667.9573333.511 1.45 1.8901939 6.2687226.3400519 13.0695904-4.08 17.9-.5699228.6233992-1.3753477.9789471-2.22.98h3c.8446523-.0010529 1.6500772-.3566008 2.22-.98 4.4200519-4.8304096 5.9701939-11.6312774 4.08-17.9-.333538-1.0916772-.7687792-2.149648-1.3-3.16 5.5013758-2.2037913 9.1079281-7.5336325 9.108-13.46z" fill="#f57c00"/><path id="Shape" d="m23.719 2.248-.719 5.752h-8l-.719-5.752c-.071142-.56929773.1056279-1.14173307.4853754-1.57179466.3797474-.43006159.925899-.67633029 1.4996246-.67620534h5.468c.5737256-.00012495 1.1198772.24614375 1.4996246.67620534.3797475.43006159.5565174 1.00249693.4853754 1.57179466z" fill="#ffdc00"/><path id="Shape" d="m21.734 0-3-.00000005c.5737256-.0001249 1.1198772.2461438 1.4996246.67620539.3797475.43006159.5565174 1.00249693.4853754 1.57179466l-.719 5.752h3l.719-5.752c.071142-.56929773-.1056279-1.14173307-.4853754-1.57179466-.3797474-.43006159-.925899-.67633029-1.4996246-.67620534z" fill="#fec108"/></g><g id="Icons_copy"><path id="Shape" d="m16.444 56h-6.891c-.28893913.0002836-.5638781-.1244234-.754-.342-2.45233561-2.8156126-3.80189693-6.4241527-3.799-10.158 0-.5522847.44771525-1 1-1s1 .4477153 1 1c-.00326043 3.0964077 1.06282005 6.0989538 3.018 8.5h6.426c.5522847 0 1 .4477153 1 1s-.4477153 1-1 1z" fill="#f5f5f5"/><path id="Shape" d="m9.11 60h22.78c1.1220449-.0035946 2.1918172-.4747003 2.952-1.3 4.6706606-5.0879813 6.3057655-12.264951 4.3-18.874-.2559254-.8070049-.5628773-1.5969301-.919-2.365 6.4156103-3.0963475 9.8946638-10.1670225 8.4331762-17.1392157-1.4614876-6.9721931-7.4871732-12.05051677-14.6061762-12.3097843-.15-.012-.15-.012-5.55-.012h-1.367l.578-4.626c.1073251-.85418031-.1574816-1.71330457-.727063-2.35884289s-1.3890406-1.01527303-2.249937-1.01515711h-5.468c-.8605012-.00004399-1.6795927.36942099-2.2491024 1.01449547-.5695097.64507447-.8345998 1.50364446-.7278976 2.35750453l.578 4.628h-3.027c-.8116564-.00025019-1.5429764.49006214-1.851 1.241-.30895487.73815291-.14146731 1.5898114.424 2.156 2.4246451 2.5094849 3.7080576 5.9072003 3.548 9.393-.0609908 3.0226441-1.4009084 5.8776464-3.687 7.856-2.60828245 2.0928569-4.88649789 4.5665984-6.758 7.338-1.70837243 2.8758485-2.57976 6.1716053-2.516 9.516-.00908033 4.8925161 1.83160104 9.6076324 5.153 13.2.76150828.8263718 1.83326552 1.2975535 2.957 1.3zm7.406-57.662c.1888961-.21644744.4627235-.33985232.75-.338h5.468c.28695-.00020598.5601617.12286642.7501469.33791514s.278435.50134944.2428531.78608486l-.61 4.876h-6.234l-.61-4.875c-.0376976-.28522205.0510608-.57268232.243-.787zm-11.311 34.718c1.76278508-2.5991229 3.90603576-4.9186743 6.358-6.881 2.7178863-2.3367213 4.3169999-5.7166659 4.4-9.3.180526-4.0378821-1.3108903-7.9717052-4.123-10.875h12.16.009 2.491c4.345 0 5.247 0 5.448.011 6.2223676.2044974 11.4973004 4.6391346 12.7677559 10.7338553s-1.7933259 12.2675779-7.4157559 14.9411447c-.5077461-.8804078-1.0884486-1.716673-1.736-2.5 4.2444345-1.772611 6.8410297-6.1014185 6.4066451-10.6805761-.4343847-4.5791575-3.7986128-8.3425138-8.3006451-9.2854239l-.048-.011-.053-.012c-2.9892862-.5937229-6.0576588.5507244-7.928 2.957-1.9774286 2.4467018-2.4313665 5.7895804-1.178 8.675 1.2 2.749 3.484 4.479 5.694 6.151.469.355.936.709 1.394 1.074.5302977.4180318 1.031461.8717517 1.5 1.358l.012.013c1.1801277 1.1718745 2.171555 2.5195274 2.939 3.995 3.4237548 6.5262379 2.3701646 14.5008466-2.631 19.914-.3789941.4190854-.9159871.660569-1.481.666h-22.78c-.56563231-.0024857-1.10444437-.241434-1.486-.659-2.97954022-3.2225724-4.63119659-7.4520843-4.624-11.841-.05285437-2.9635679.70993261-5.8846442 2.205-8.444zm28.86-5.456c-.4043614-.3924837-.8285853-.7639716-1.271-1.113-.467-.372-.947-.736-1.43-1.1-2.1-1.588-4.077-3.087-5.067-5.356-.9556084-2.2048855-.606878-4.7581316.905-6.626 1.1526473-1.4807546 2.9215226-2.3500768 4.798-2.358.3977691.0003425.7945876.0388523 1.185.115l.032.006c.0163957.0050551.033096.0090631.05.012 3.7766614.800892 6.5392498 4.0463843 6.7266533 7.9024807.1874034 3.8560964-2.247452 7.3541806-5.9286533 8.5175193z" fill="#000"/></g></g></g></svg>