<svg height="512" viewBox="0 0 128 128" width="512" xmlns="http://www.w3.org/2000/svg"><g><g><path d="m23.871 112.667h80.258v8.833h-80.258z" fill="#f2ae27"/><path d="m99.416 115.5h-70.832a12 12 0 0 1 -11.923-10.645l-2.882-25.355h100.442l-2.882 25.355a12 12 0 0 1 -11.923 10.645z" fill="#fdd82e"/><path d="m112.255 71.188c-3.912-11.081-24.02-19.521-48.255-19.521s-44.343 8.44-48.255 19.521a9.31 9.31 0 1 0 7.62 14.741 9.3 9.3 0 0 0 17.292 3.234 9.3 9.3 0 0 0 15.717.737 9.3 9.3 0 0 0 15.252 0 9.3 9.3 0 0 0 15.717-.737 9.3 9.3 0 0 0 17.292-3.234 9.308 9.308 0 1 0 7.62-14.741z" fill="#f4a86c"/></g><g fill="#251333"><path d="m82.5 107.75a1.75 1.75 0 0 0 0 3.5h6.917a1.75 1.75 0 0 0 0-3.5z"/><path d="m31.412 59.374a1.736 1.736 0 0 0 .689-.142c1.093-.468 2.238-.915 3.4-1.327a1.75 1.75 0 0 0 -1.168-3.3c-1.234.437-2.449.912-3.613 1.41a1.75 1.75 0 0 0 .69 3.358z"/><path d="m123.25 80.5a11.094 11.094 0 0 0 -9.78-10.984c-5.086-11.424-25.541-19.599-49.47-19.599a95.945 95.945 0 0 0 -23.6 2.845 1.75 1.75 0 1 0 .875 3.388 92.456 92.456 0 0 1 22.725-2.733c22.875 0 42.911 7.89 46.605 18.354a1.755 1.755 0 0 0 1.638 1.167 7.561 7.561 0 1 1 -6.187 11.968 1.751 1.751 0 0 0 -3.152.769 7.551 7.551 0 0 1 -14.041 2.625 1.75 1.75 0 0 0 -3.041 0 7.549 7.549 0 0 1 -12.762.6 1.75 1.75 0 0 0 -2.867 0 7.549 7.549 0 0 1 -12.386 0 1.816 1.816 0 0 0 -2.867 0 7.549 7.549 0 0 1 -12.762-.6 1.75 1.75 0 0 0 -3.041 0 7.551 7.551 0 0 1 -14.037-2.625 1.751 1.751 0 0 0 -3.152-.769 7.557 7.557 0 1 1 -6.187-11.968 1.753 1.753 0 0 0 1.639-1.167c1.235-3.5 4.421-6.874 9.214-9.755a1.75 1.75 0 1 0 -1.8-3c-5.028 3.023-8.555 6.631-10.277 10.5a11.055 11.055 0 0 0 -1.171 21.763l1.562 13.784a13.725 13.725 0 0 0 7.2 10.569v5.868a1.749 1.749 0 0 0 1.75 1.75h80.26a1.749 1.749 0 0 0 1.75-1.75v-5.872a13.725 13.725 0 0 0 7.2-10.569 1.75 1.75 0 1 0 -3.478-.4 10.24 10.24 0 0 1 -10.19 9.091h-70.84a10.24 10.24 0 0 1 -10.18-9.087l-1.492-13.163a11.086 11.086 0 0 0 5.652-2.25 11.038 11.038 0 0 0 18.1 2.847 11.038 11.038 0 0 0 15.717.472 11.038 11.038 0 0 0 15.252 0 11.038 11.038 0 0 0 15.714-.469 11.038 11.038 0 0 0 18.1-2.847 11.086 11.086 0 0 0 5.653 2.248l-.6 5.3a1.751 1.751 0 0 0 1.542 1.936 1.941 1.941 0 0 0 .2.011 1.752 1.752 0 0 0 1.738-1.553l.67-5.919a11.075 11.075 0 0 0 8.604-10.776zm-23.83 36.75a13.77 13.77 0 0 0 2.96-.333v2.833h-76.76v-2.833a13.77 13.77 0 0 0 2.96.333z"/><path d="m43.025 74.11a1.749 1.749 0 0 0 1.482-.815 32.1 32.1 0 0 1 8.393-8.926 1.75 1.75 0 1 0 -1.908-2.935 35.077 35.077 0 0 0 -9.445 9.992 1.749 1.749 0 0 0 1.477 2.684z"/><path d="m83.493 73.3a1.75 1.75 0 0 0 2.959-1.869 35.077 35.077 0 0 0 -9.445-9.992 1.75 1.75 0 0 0 -1.91 2.933 32.12 32.12 0 0 1 8.396 8.928z"/><path d="m65.75 72.068v-8.875a1.75 1.75 0 0 0 -3.5 0v8.875a1.75 1.75 0 0 0 3.5 0z"/><path d="m47.75 34.25a1.75 1.75 0 0 0 3.5 0 4.694 4.694 0 0 1 1.574-3.481 8.076 8.076 0 0 0 0-11.541 4.634 4.634 0 0 1 0-6.959 8.032 8.032 0 0 0 2.426-5.769 1.75 1.75 0 0 0 -3.5 0 4.693 4.693 0 0 1 -1.573 3.478 8.072 8.072 0 0 0 0 11.539 4.636 4.636 0 0 1 0 6.962 8.039 8.039 0 0 0 -2.427 5.771z"/><path d="m60.25 34.25a1.75 1.75 0 0 0 3.5 0 4.694 4.694 0 0 1 1.574-3.481 8.076 8.076 0 0 0 0-11.541 4.634 4.634 0 0 1 0-6.959 8.032 8.032 0 0 0 2.426-5.769 1.75 1.75 0 0 0 -3.5 0 4.693 4.693 0 0 1 -1.573 3.478 8.072 8.072 0 0 0 0 11.539 4.636 4.636 0 0 1 0 6.962 8.039 8.039 0 0 0 -2.427 5.771z"/><path d="m72.75 34.25a1.75 1.75 0 0 0 3.5 0 4.694 4.694 0 0 1 1.574-3.481 8.076 8.076 0 0 0 0-11.541 4.634 4.634 0 0 1 0-6.959 8.032 8.032 0 0 0 2.426-5.769 1.75 1.75 0 0 0 -3.5 0 4.693 4.693 0 0 1 -1.573 3.478 8.072 8.072 0 0 0 0 11.539 4.636 4.636 0 0 1 0 6.962 8.039 8.039 0 0 0 -2.427 5.771z"/></g></g></svg>